<svg width="60" height="73" viewBox="0 0 60 73" fill="none" xmlns="http://www.w3.org/2000/svg">
<path d="M59.9981 38.2778C59.9565 38.6337 59.4225 39.1986 58.3963 39.9723C56.4548 41.4579 55.387 42.2858 55.1929 42.456C49.3129 47.4853 46.0886 50 45.52 50C45.215 50 45.0416 49.7911 45 49.3733C45.0277 49.6673 45.0416 49.0715 45.0416 47.5859C45.0416 47.23 45.5686 46.611 46.6225 45.7289C47.6765 44.8469 50.1866 42.8506 54.1528 39.7402C51.9201 37.3571 49.3545 34.6799 46.4561 31.7087C45.9985 31.3064 45.7073 30.8576 45.5824 30.3624C45.5131 30.0839 45.4784 29.5345 45.4784 28.7144C45.4784 26.9502 45.4715 26.1455 45.4576 26.3003C45.5408 25.4182 45.8737 24.9849 46.4561 25.0004C46.789 25.0159 48.1827 26.2771 50.6373 28.784C54.9086 33.1479 57.1344 35.4227 57.3146 35.6084C57.4949 35.7941 58.119 36.3202 59.1868 37.1868C59.7554 37.6511 60.0258 38.0147 59.9981 38.2778Z" fill="#00165B"/>
<g filter="url(#filter0_d_0_1)">
<path d="M17.9611 47.5627C17.9611 47.1913 17.4686 46.5646 16.4835 45.6825C15.5114 44.8159 13.1654 42.8274 9.44555 39.717C11.5323 37.3338 13.9366 34.6567 16.6585 31.6855C17.0862 31.2832 17.3584 30.8344 17.4751 30.3392C17.5399 30.0607 17.5723 29.5113 17.5723 28.6911C17.5723 26.9425 17.5788 26.1455 17.5917 26.3003C17.514 25.4182 17.2029 24.9849 16.6585 25.0004C16.3474 25.0159 15.0448 26.2693 12.7507 28.7608C8.66787 33.233 6.58759 35.5078 6.50982 35.5852C6.34132 35.7709 5.75806 36.297 4.76004 37.1636C4.22863 37.6279 3.97589 37.9915 4.00181 38.2546C4.04069 38.6105 4.5397 39.1754 5.49884 39.9491C7.31342 41.4347 8.31144 42.2626 8.4929 42.4328C14.0144 47.4776 17.0279 50 17.5334 50C17.8185 50 17.9741 49.7834 18 49.3501C17.9741 49.8453 17.9611 49.2495 17.9611 47.5627Z" fill="#00165B"/>
</g>
<path d="M28.9718 36.0904C29.3859 36.2287 30.0107 36.2979 30.8462 36.2979C31.5944 36.2979 32.2011 36.2766 32.666 36.234C33.1382 36.1915 33.4942 36.1223 33.734 36.0266C33.9737 35.9273 34.1335 35.8191 34.2135 35.7021C34.2934 35.5816 34.3333 35.4255 34.3333 35.234C34.3333 35.0071 34.2098 34.8121 33.9628 34.6489C33.7158 34.4858 33.3816 34.3546 32.9603 34.2553C32.5389 34.156 32.0558 34.0691 31.5109 33.9947C30.966 33.9167 30.3921 33.844 29.7891 33.7766C29.1861 33.7057 28.5831 33.6294 27.9801 33.5479C27.3771 33.4628 26.8032 33.3528 26.2583 33.2181C25.7135 33.0798 25.2303 32.9184 24.809 32.734C24.3876 32.5461 24.0534 32.3032 23.8064 32.0053C23.5594 31.7074 23.4359 31.3652 23.4359 30.9787C23.4359 30.6241 23.5231 30.3014 23.6974 30.0106C23.8718 29.7199 24.1043 29.4734 24.3949 29.2713C24.6855 29.0656 25.0524 28.8865 25.4955 28.734C25.9387 28.5816 26.4 28.4592 26.8795 28.367C27.3662 28.2748 27.9111 28.2004 28.5141 28.1436C29.1244 28.0869 29.7128 28.0496 30.2795 28.0319C30.8462 28.0106 31.4637 28 32.1321 28C33.585 28 34.8528 28.0904 35.9353 28.2713C37.025 28.4521 37.8823 28.695 38.5071 29C38.8412 29.1383 39.0991 29.3067 39.2808 29.5053C39.4697 29.7004 39.5641 29.9078 39.5641 30.1277C39.5641 30.539 39.2662 30.8901 38.6705 31.1809C38.0748 31.4716 37.3556 31.617 36.5128 31.617C35.6701 31.617 34.9509 31.4716 34.3551 31.1809C33.7594 30.8901 33.4615 30.539 33.4615 30.1277C33.4615 29.9787 33.5051 29.8351 33.5923 29.6968C33.1782 29.5585 32.5534 29.4894 31.7179 29.4894C30.6936 29.4894 29.9271 29.5496 29.4186 29.6702C28.9173 29.7908 28.6667 30.0142 28.6667 30.3404C28.6667 30.5461 28.772 30.7287 28.9827 30.8883C29.1934 31.0443 29.4803 31.1738 29.8436 31.2766C30.2068 31.3759 30.6282 31.4716 31.1077 31.5638C31.5944 31.6525 32.1103 31.7287 32.6551 31.7926C33.2 31.8528 33.7594 31.9273 34.3333 32.016C34.9073 32.1046 35.4667 32.195 36.0115 32.2872C36.5564 32.3794 37.0686 32.5018 37.5481 32.6543C38.0348 32.8032 38.4598 32.9716 38.8231 33.1596C39.1863 33.3475 39.4733 33.5833 39.684 33.867C39.8947 34.1472 40 34.461 40 34.8085C40 35.305 39.8293 35.7429 39.4878 36.1223C39.1536 36.4982 38.7032 36.8032 38.1365 37.0372C37.5771 37.2713 36.8797 37.4628 36.0442 37.6117C35.2088 37.7571 34.3406 37.8582 33.4397 37.9149C32.5389 37.9716 31.5363 38 30.4321 38C28.2017 38 26.4036 37.7926 25.0378 37.3777C23.6793 36.9628 23 36.3901 23 35.6596C23 35.2482 23.2979 34.8972 23.8936 34.6064C24.4893 34.3156 25.2085 34.1702 26.0513 34.1702C26.894 34.1702 27.6132 34.3156 28.209 34.6064C28.8047 34.8972 29.1026 35.2482 29.1026 35.6596C29.1026 35.8085 29.059 35.9521 28.9718 36.0904Z" fill="#B50300"/>
<path d="M52 72.2104C48.5948 69.1987 45.719 65.9789 43.3724 62.5509C41.0435 59.123 39.385 55.5053 38.397 51.6978C37.4795 51.7835 36.6238 51.8386 35.8299 51.8631C35.0359 51.8876 34.2684 51.8998 33.5274 51.8998C32.0983 51.8998 30.5898 51.8203 29.0019 51.6611C27.4316 51.5142 25.7996 51.2938 24.1059 51C23.5236 52.6772 22.7826 54.4341 21.8828 56.2705C20.983 58.1068 19.9332 59.9249 18.7335 61.7245C17.5514 63.5365 16.2281 65.2933 14.7637 66.995C13.2993 68.6967 11.7114 70.2577 10 71.6778C11.0057 71.6043 11.9849 71.5492 12.9376 71.5125C13.908 71.4758 14.8255 71.4574 15.69 71.4574C17.5602 71.4574 19.448 71.5676 21.3535 71.788C23.2766 72.0206 25.1468 72.4246 26.9641 73C27.1229 71.7635 27.2993 70.5576 27.4934 69.3823C27.7051 68.207 27.9698 67.0562 28.2873 65.9299C28.6049 64.8158 28.9842 63.7201 29.4253 62.6427C29.8841 61.5776 30.4222 60.5248 31.0397 59.4841C31.6749 60.4636 32.2483 61.4919 32.7599 62.5693C33.2716 63.6466 33.7127 64.7423 34.0832 65.8564C34.4537 66.9705 34.736 68.0846 34.9301 69.1987C35.1241 70.3127 35.2212 71.3901 35.2212 72.4307C36.9149 72.2593 38.5205 72.1247 40.0378 72.0267C41.5551 71.941 43.0019 71.8982 44.3781 71.8982C45.5425 71.8982 46.7423 71.9288 47.9773 71.99C49.23 72.0512 50.5709 72.1247 52 72.2104Z" fill="#B50300"/>
<path d="M22 12.0723V11.668C22 10.2969 22.1992 9.02539 22.5977 7.85352C22.9961 6.66992 23.5703 5.64453 24.3203 4.77734C25.0703 3.89844 25.9785 3.21875 27.0449 2.73828C28.1113 2.24609 29.3066 2 30.6309 2C31.9668 2 33.168 2.24609 34.2344 2.73828C35.3125 3.21875 36.2266 3.89844 36.9766 4.77734C37.7383 5.64453 38.3184 6.66992 38.7168 7.85352C39.1152 9.02539 39.3145 10.2969 39.3145 11.668V12.0723C39.3145 13.4434 39.1152 14.7148 38.7168 15.8867C38.3184 17.0586 37.7383 18.084 36.9766 18.9629C36.2266 19.8301 35.3184 20.5098 34.252 21.002C33.1973 21.4824 32.002 21.7227 30.666 21.7227C29.3301 21.7227 28.1289 21.4824 27.0625 21.002C25.9961 20.5098 25.082 19.8301 24.3203 18.9629C23.5703 18.084 22.9961 17.0586 22.5977 15.8867C22.1992 14.7148 22 13.4434 22 12.0723ZM25.252 11.668V12.0723C25.252 13.0215 25.3633 13.918 25.5859 14.7617C25.8086 15.5938 26.1426 16.332 26.5879 16.9766C27.0449 17.6211 27.6133 18.1309 28.293 18.5059C28.9727 18.8691 29.7637 19.0508 30.666 19.0508C31.5566 19.0508 32.3359 18.8691 33.0039 18.5059C33.6836 18.1309 34.2461 17.6211 34.6914 16.9766C35.1367 16.332 35.4707 15.5938 35.6934 14.7617C35.9277 13.918 36.0449 13.0215 36.0449 12.0723V11.668C36.0449 10.7305 35.9277 9.8457 35.6934 9.01367C35.4707 8.16992 35.1309 7.42578 34.6738 6.78125C34.2285 6.125 33.666 5.60938 32.9863 5.23438C32.3184 4.85938 31.5332 4.67188 30.6309 4.67188C29.7402 4.67188 28.9551 4.85938 28.2754 5.23438C27.6074 5.60938 27.0449 6.125 26.5879 6.78125C26.1426 7.42578 25.8086 8.16992 25.5859 9.01367C25.3633 9.8457 25.252 10.7305 25.252 11.668Z" fill="#AF7640"/>
<path d="M36.7119 2.6375L38 2.5246C38 3.16627 39.8904 1.55833 39.6712 2.125C39.452 2.69167 39.1441 3.19167 38.7474 3.625C38.3507 4.05 37.881 4.3875 37.3382 4.6375C36.8058 4.87917 36.2265 5 35.6002 5C34.8382 5 34.1649 4.85417 33.5804 4.5625C32.9958 4.27083 32.3643 3.84167 31.6858 3.275C31.2683 2.88333 30.8768 2.57917 30.5115 2.3625C30.1566 2.14583 29.7808 2.0375 29.3841 2.0375C28.9562 2.0375 28.5908 2.14167 28.2881 2.35C27.9958 2.55 27.7714 2.8375 27.6148 3.2125C27.4582 3.5875 27.38 4.0375 27.38 4.5625L25 4.5875C25 3.9375 25.1096 3.33333 25.3288 2.775C25.548 2.21667 25.8507 1.72917 26.237 1.3125C26.6336 0.895833 27.0981 0.575 27.6305 0.35C28.1733 0.116667 28.7578 0 29.3841 0C30.1461 0 30.8299 0.154167 31.4353 0.4625C32.0407 0.770833 32.6618 1.19583 33.2985 1.7375C33.737 2.15417 34.1284 2.46667 34.4729 2.675C34.8173 2.875 35.1931 2.975 35.6002 2.975C36.0282 2.975 36.3987 2.8625 36.7119 2.6375C36.7119 3.625 39.4937 2.525 39.6712 2.125C39.8591 1.725 38.9666 2.625 36.7119 2.6375Z" fill="#111111"/>
<defs>
<filter id="filter0_d_0_1" x="0" y="25" width="22" height="33" filterUnits="userSpaceOnUse" color-interpolation-filters="sRGB">
<feFlood flood-opacity="0" result="BackgroundImageFix"/>
<feColorMatrix in="SourceAlpha" type="matrix" values="0 0 0 0 0 0 0 0 0 0 0 0 0 0 0 0 0 0 127 0" result="hardAlpha"/>
<feOffset dy="4"/>
<feGaussianBlur stdDeviation="2"/>
<feComposite in2="hardAlpha" operator="out"/>
<feColorMatrix type="matrix" values="0 0 0 0 0 0 0 0 0 0 0 0 0 0 0 0 0 0 0.25 0"/>
<feBlend mode="normal" in2="BackgroundImageFix" result="effect1_dropShadow_0_1"/>
<feBlend mode="normal" in="SourceGraphic" in2="effect1_dropShadow_0_1" result="shape"/>
</filter>
</defs>
</svg>
