<svg width="60" height="74" viewBox="0 0 60 74" fill="none" xmlns="http://www.w3.org/2000/svg">
<path d="M59.9981 39.2778C59.9565 39.6337 59.4225 40.1986 58.3963 40.9723C56.4548 42.4579 55.387 43.2858 55.1929 43.456C49.3129 48.4853 46.0886 51 45.52 51C45.215 51 45.0416 50.7911 45 50.3733C45.0277 50.6673 45.0416 50.0715 45.0416 48.5859C45.0416 48.23 45.5686 47.611 46.6225 46.7289C47.6765 45.8469 50.1866 43.8506 54.1528 40.7402C51.9201 38.3571 49.3545 35.6799 46.4561 32.7087C45.9985 32.3064 45.7073 31.8576 45.5824 31.3624C45.5131 31.0839 45.4784 30.5345 45.4784 29.7144C45.4784 27.9502 45.4715 27.1455 45.4576 27.3003C45.5408 26.4182 45.8737 25.9849 46.4561 26.0004C46.789 26.0159 48.1827 27.2771 50.6373 29.784C54.9086 34.1479 57.1344 36.4227 57.3146 36.6084C57.4949 36.7941 58.119 37.3202 59.1868 38.1868C59.7554 38.6511 60.0258 39.0147 59.9981 39.2778Z" fill="#00165B"/>
<g filter="url(#filter0_d_0_1)">
<path d="M17.9611 48.5627C17.9611 48.1913 17.4686 47.5646 16.4835 46.6825C15.5114 45.8159 13.1654 43.8274 9.44555 40.717C11.5323 38.3338 13.9366 35.6567 16.6585 32.6855C17.0862 32.2832 17.3584 31.8344 17.4751 31.3392C17.5399 31.0607 17.5723 30.5113 17.5723 29.6911C17.5723 27.9425 17.5788 27.1455 17.5917 27.3003C17.514 26.4182 17.2029 25.9849 16.6585 26.0004C16.3474 26.0159 15.0448 27.2693 12.7507 29.7608C8.66787 34.233 6.58759 36.5078 6.50982 36.5852C6.34132 36.7709 5.75806 37.297 4.76004 38.1636C4.22863 38.6279 3.97589 38.9915 4.00181 39.2546C4.04069 39.6105 4.5397 40.1754 5.49884 40.9491C7.31342 42.4347 8.31144 43.2626 8.4929 43.4328C14.0144 48.4776 17.0279 51 17.5334 51C17.8185 51 17.9741 50.7834 18 50.3501C17.9741 50.8453 17.9611 50.2495 17.9611 48.5627Z" fill="#00165B"/>
</g>
<path d="M28.9718 37.0053C29.3859 37.1436 30.0107 37.2127 30.8462 37.2127C31.5944 37.2127 32.2011 37.1915 32.666 37.1489C33.1382 37.1064 33.4942 37.0372 33.734 36.9415C33.9737 36.8422 34.1335 36.734 34.2135 36.617C34.2934 36.4964 34.3333 36.3404 34.3333 36.1489C34.3333 35.922 34.2098 35.7269 33.9628 35.5638C33.7158 35.4007 33.3816 35.2695 32.9603 35.1702C32.5389 35.0709 32.0558 34.984 31.5109 34.9095C30.966 34.8315 30.3921 34.7588 29.7891 34.6915C29.1861 34.6205 28.5831 34.5443 27.9801 34.4627C27.3771 34.3776 26.8032 34.2677 26.2583 34.133C25.7135 33.9947 25.2303 33.8333 24.809 33.6489C24.3876 33.461 24.0534 33.2181 23.8064 32.9202C23.5594 32.6223 23.4359 32.2801 23.4359 31.8936C23.4359 31.539 23.5231 31.2163 23.6974 30.9255C23.8718 30.6347 24.1043 30.3883 24.3949 30.1861C24.6855 29.9805 25.0524 29.8014 25.4955 29.6489C25.9387 29.4964 26.4 29.3741 26.8795 29.2819C27.3662 29.1897 27.9111 29.1152 28.5141 29.0585C29.1244 29.0017 29.7128 28.9645 30.2795 28.9468C30.8462 28.9255 31.4637 28.9149 32.1321 28.9149C33.734 28.9149 35.4175 30.0053 36.5 30.1861C37.5897 30.367 37.8752 27.6099 38.5 27.9149C38.8342 28.0532 39.0991 30.2216 39.2808 30.4202C39.4697 30.6152 40.0615 31.5957 39.2808 31.2553C39.2519 30.374 40.2686 31.5957 39.2808 31.2553C39.7808 31.7553 37.3427 31.2553 36.5 31.2553C35.5 31.4149 36.824 30.5851 36.0115 30.9149C36.0115 30.4149 34.6439 30.1861 34.3333 30.1861C34.3333 30.3351 34.3333 30.0372 34.3333 30.1861C33.9192 30.0478 32.9675 29.9149 32.1321 29.9149C31.1077 29.9149 29.0226 30.0656 28.5141 30.1861C28.0128 30.3067 27.7907 30.929 27.7907 31.2553C27.7907 31.461 28.5853 32.2819 29.1026 31.8936C29.6199 31.5053 32.5135 32.5053 32.666 31.8936C33.0293 31.9929 31.7178 31.8413 31.5109 31.8936C32.1321 31.6705 32.4154 32.1276 32.9603 32.1915C33.5051 32.2517 33.9261 32.3262 34.5 32.4149C35.0739 32.5035 35.9551 32.828 36.5 32.9202C37.0449 33.0124 37.6571 33.2624 38.1365 33.4149C38.6233 33.5638 38.9175 33.945 39.2808 34.133C39.644 34.3209 39.4733 34.4982 39.684 34.7819C39.8947 35.062 40 35.3759 40 35.7234C40 36.2198 39.8293 36.6578 39.4878 37.0372C39.1536 37.4131 38.7032 37.7181 38.1365 37.9521C37.5771 38.1861 36.8797 38.3776 36.0442 38.5266C35.2088 38.672 34.3406 38.773 33.4397 38.8298C32.5389 38.8865 31.5363 38.9149 30.4321 38.9149C28.2017 38.9149 26.4036 38.7074 25.0378 38.2925C23.6793 37.8776 23 37.3049 23 36.5744C23 36.1631 23.2979 35.812 23.8936 35.5212C24.4893 35.2305 25.2085 35.0851 26.0513 35.0851C26.894 35.0851 27.6132 35.2305 28.209 35.5212C28.8047 35.812 29.1026 36.1631 29.1026 36.5744C29.1026 36.7234 29.059 36.867 28.9718 37.0053Z" fill="#B50300"/>
<path d="M52 73.2104C48.5948 70.1987 45.719 66.9789 43.3724 63.5509C41.0435 60.123 39.385 56.5053 38.397 52.6978C37.4795 52.7835 36.6238 52.8386 35.8299 52.8631C35.0359 52.8876 34.2684 52.8998 33.5274 52.8998C32.0983 52.8998 30.5898 52.8203 29.0019 52.6611C27.4316 52.5142 25.7996 52.2938 24.1059 52C23.5236 53.6772 22.7826 55.4341 21.8828 57.2705C20.983 59.1068 19.9332 60.9249 18.7335 62.7245C17.5514 64.5365 16.2281 66.2933 14.7637 67.995C13.2993 69.6967 11.7114 71.2577 10 72.6778C11.0057 72.6043 11.9849 72.5492 12.9376 72.5125C13.908 72.4758 14.8255 72.4574 15.69 72.4574C17.5602 72.4574 19.448 72.5676 21.3535 72.788C23.2766 73.0206 25.1468 73.4246 26.9641 74C27.1229 72.7635 27.2993 71.5576 27.4934 70.3823C27.7051 69.207 27.9698 68.0562 28.2873 66.9299C28.6049 65.8158 28.9842 64.7201 29.4253 63.6427C29.8841 62.5776 30.4222 61.5248 31.0397 60.4841C31.6749 61.4636 32.2483 62.4919 32.7599 63.5693C33.2716 64.6466 33.7127 65.7423 34.0832 66.8564C34.4537 67.9705 34.736 69.0846 34.9301 70.1987C35.1241 71.3127 35.2212 72.3901 35.2212 73.4307C36.9149 73.2593 38.5205 73.1247 40.0378 73.0267C41.5551 72.941 43.0019 72.8982 44.3781 72.8982C45.5425 72.8982 46.7423 72.9288 47.9773 72.99C49.23 73.0512 50.5709 73.1247 52 73.2104Z" fill="#B50300"/>
<path d="M22 13.0723V12.668C22 11.2969 22.1992 10.0254 22.5977 8.85352C22.9961 7.66992 23.5703 6.64453 24.3203 5.77734C25.0703 4.89844 25.9785 4.21875 27.0449 3.73828C28.1113 3.24609 29.3066 3 30.6309 3C31.9668 3 33.168 3.24609 34.2344 3.73828C35.3125 4.21875 36.2266 4.89844 36.9766 5.77734C37.7383 6.64453 38.3184 7.66992 38.7168 8.85352C39.1152 10.0254 39.3145 11.2969 39.3145 12.668V13.0723C39.3145 14.4434 39.1152 15.7148 38.7168 16.8867C38.3184 18.0586 37.7383 19.084 36.9766 19.9629C36.2266 20.8301 35.3184 21.5098 34.252 22.002C33.1973 22.4824 32.002 22.7227 30.666 22.7227C29.3301 22.7227 28.1289 22.4824 27.0625 22.002C25.9961 21.5098 25.082 20.8301 24.3203 19.9629C23.5703 19.084 22.9961 18.0586 22.5977 16.8867C22.1992 15.7148 22 14.4434 22 13.0723ZM25.252 12.668V13.0723C25.252 14.0215 25.3633 14.918 25.5859 15.7617C25.8086 16.5938 26.1426 17.332 26.5879 17.9766C27.0449 18.6211 27.6133 19.1309 28.293 19.5059C28.9727 19.8691 29.7637 20.0508 30.666 20.0508C31.5566 20.0508 32.3359 19.8691 33.0039 19.5059C33.6836 19.1309 34.2461 18.6211 34.6914 17.9766C35.1367 17.332 35.4707 16.5938 35.6934 15.7617C35.9277 14.918 36.0449 14.0215 36.0449 13.0723V12.668C36.0449 11.7305 35.9277 10.8457 35.6934 10.0137C35.4707 9.16992 35.1309 8.42578 34.6738 7.78125C34.2285 7.125 33.666 6.60938 32.9863 6.23438C32.3184 5.85938 31.5332 5.67188 30.6309 5.67188C29.7402 5.67188 28.9551 5.85938 28.2754 6.23438C27.6074 6.60938 27.0449 7.125 26.5879 7.78125C26.1426 8.42578 25.8086 9.16992 25.5859 10.0137C25.3633 10.8457 25.252 11.7305 25.252 12.668Z" fill="#AF7640"/>
<path d="M35.7119 2.6375L37 2.5246C37 3.16627 38.8904 1.55833 38.6712 2.125C38.452 2.69167 38.1441 3.19167 37.7474 3.625C37.3507 4.05 36.881 4.3875 36.3382 4.6375C35.8058 4.87917 35.2265 5 34.6002 5C33.8382 5 33.1649 4.85417 32.5804 4.5625C31.9958 4.27083 31.3643 3.84167 30.6858 3.275C30.2683 2.88333 29.8768 2.57917 29.5115 2.3625C29.1566 2.14583 28.7808 2.0375 28.3841 2.0375C27.9562 2.0375 27.5908 2.14167 27.2881 2.35C26.9958 2.55 26.7714 2.8375 26.6148 3.2125C26.4582 3.5875 26.38 4.0375 26.38 4.5625L24 4.5875C24 3.9375 24.1096 3.33333 24.3288 2.775C24.548 2.21667 24.8507 1.72917 25.237 1.3125C25.6336 0.895833 26.0981 0.575 26.6305 0.35C27.1733 0.116667 27.7578 0 28.3841 0C29.1461 0 29.8299 0.154167 30.4353 0.4625C31.0407 0.770833 31.6618 1.19583 32.2985 1.7375C32.737 2.15417 33.1284 2.46667 33.4729 2.675C33.8173 2.875 34.1931 2.975 34.6002 2.975C35.0282 2.975 35.3987 2.8625 35.7119 2.6375C35.7119 3.625 38.4937 2.525 38.6712 2.125C38.8591 1.725 37.9666 2.625 35.7119 2.6375Z" fill="#111111"/>
<defs>
<filter id="filter0_d_0_1" x="0" y="26" width="22" height="33" filterUnits="userSpaceOnUse" color-interpolation-filters="sRGB">
<feFlood flood-opacity="0" result="BackgroundImageFix"/>
<feColorMatrix in="SourceAlpha" type="matrix" values="0 0 0 0 0 0 0 0 0 0 0 0 0 0 0 0 0 0 127 0" result="hardAlpha"/>
<feOffset dy="4"/>
<feGaussianBlur stdDeviation="2"/>
<feComposite in2="hardAlpha" operator="out"/>
<feColorMatrix type="matrix" values="0 0 0 0 0 0 0 0 0 0 0 0 0 0 0 0 0 0 0.25 0"/>
<feBlend mode="normal" in2="BackgroundImageFix" result="effect1_dropShadow_0_1"/>
<feBlend mode="normal" in="SourceGraphic" in2="effect1_dropShadow_0_1" result="shape"/>
</filter>
</defs>
</svg>
